<svg viewBox="0 0 72 72" xmlns="http://www.w3.org/2000/svg"><g style="fill:none;stroke:#000;stroke-linecap:round;stroke-linejoin:round;stroke-miterlimit:10;stroke-width:2"><path d="m16 35h9.875"/><path d="m25.875 35c3.4167 0 4.75-2.9167 4.75-6.1667"/><path d="m16 45.5h3.75"/><path d="m35.2997 45.5v-6.0625"/><path d="m35.2997 39.4375c0-2.2455 1.2003-5.25 5.0756-5.25"/><path d="m58.4583 34.5417h-8.5833"/><path d="m40.375 45.5s.1642 10.5-7.9583 10.5h-16.4167c-7.2083 0-7.6667-10.5 0-10.5-7.2083 0-7.6667-10.5 0-10.5-8.1667-7.25 1.875-13.5625 6.5-8.6875-4.799-6.625 5.375-10.3125 8.875-5-.4123-5.3125 4.8472-6.2708 9.7253-2.2885l-.4336.351c2.375-2.375 10.1776-1.0833 10.1776 5.3141l-2.2192 1.6234c6.8646-6.8646 14.2083 4.1875 8.5 8.2292h1.3333c4.75 0 5.2917 10.9583-1.3333 10.9583h-27.8334"/><path d="m40.6667 19.375c-2.4167 2.4167-.2822 3.1782-4.2707 7.1667"/></g></svg>